<svg fill="none" height="131" viewBox="0 0 131 131" width="131" xmlns="http://www.w3.org/2000/svg" xmlns:xlink="http://www.w3.org/1999/xlink"><filter id="a" color-interpolation-filters="sRGB" filterUnits="userSpaceOnUse" height="130" width="130" x=".500001" y=".273489"><feFlood flood-opacity="0" result="BackgroundImageFix"/><feColorMatrix in="SourceAlpha" result="hardAlpha" type="matrix" values="0 0 0 0 0 0 0 0 0 0 0 0 0 0 0 0 0 0 127 0"/><feOffset dy="5.33333"/><feGaussianBlur stdDeviation="8"/><feComposite in2="hardAlpha" operator="out"/><feColorMatrix type="matrix" values="0 0 0 0 0 0 0 0 0 0 0 0 0 0 0 0 0 0 0.25 0"/><feBlend in2="BackgroundImageFix" mode="normal" result="effect1_dropShadow_1295_3323"/><feBlend in="SourceGraphic" in2="effect1_dropShadow_1295_3323" mode="normal" result="shape"/></filter><linearGradient id="b" gradientUnits="userSpaceOnUse" x1="65.5" x2="65.5" y1="11.9402" y2="107.94"><stop offset="0" stop-color="#d9d9d9"/><stop offset=".0260417" stop-color="#d9d9d9"/><stop offset=".421875" stop-color="#202934"/></linearGradient><linearGradient id="c" gradientUnits="userSpaceOnUse" x1="65.9929" x2="65.9929" y1="25.6452" y2="106"><stop offset="0" stop-color="#8998a1"/><stop offset="1" stop-color="#8998a1" stop-opacity="0"/></linearGradient><g filter="url(#a)"><circle cx="65.5" cy="59.9402" fill="#22272b" r="48"/><circle cx="65.5" cy="59.9402" r="48.5" stroke="url(#b)"/></g><path clip-rule="evenodd" d="m84.1939 43.8388c0 10.048-8.1456 18.1936-18.1936 18.1936-10.0481 0-18.1937-8.1456-18.1937-18.1936 0-10.0481 8.1456-18.1936 18.1937-18.1936 10.048 0 18.1936 8.1455 18.1936 18.1936zm2.9011 29.2545c6.5479 3.2832 12.2397 8.0485 16.623 13.9171-4.3683 5.8928-10.0568 10.6801-16.6092 13.9776-6.5524 3.298-13.7864 5.015-21.1219 5.012-7.3355-.002-14.5684-1.723-21.1187-5.025-6.5503-3.3019-12.2358-8.0927-16.6006-13.9882 4.3871-5.8659 10.0819-10.6276 16.6318-13.9068 6.55-3.2791 13.7745-4.9854 21.0994-4.9831s14.5484 1.7131 21.0962 4.9964z" fill="url(#c)" fill-rule="evenodd"/></svg>