<svg xmlns="http://www.w3.org/2000/svg" width="22" height="20" viewBox="0 0 22 20">
  <path id="Path_644" data-name="Path 644" d="M968,198a1,1,0,0,0,0-2h-3.5a1.5,1.5,0,0,0-1.5,1.5V201a1,1,0,0,0,2,0v-3Zm13,3a1,1,0,0,0,2,0v-3.5a1.5,1.5,0,0,0-1.5-1.5H978a1,1,0,0,0,0,2h3Zm-17,9a1,1,0,0,1,1,1v3h3a1,1,0,0,1,0,2h-3.5a1.5,1.5,0,0,1-1.5-1.5V211A1,1,0,0,1,964,210Zm14,4a1,1,0,0,0,0,2h3.5a1.5,1.5,0,0,0,1.5-1.5V211a1,1,0,0,0-2,0v3Zm5-7a1,1,0,0,0,0-2H963a1,1,0,0,0,0,2Z" transform="translate(-962 -196)" fill="#fff" fill-rule="evenodd"/>
</svg>
