<svg xmlns="http://www.w3.org/2000/svg" width="63.669" height="63.628" viewBox="-12.608 83.999 63.669 63.628"><path d="M16.112 147.57c-4.064-.592-6.297-1.153-8.92-2.24-12.05-4.998-19.8-16.56-19.8-29.537 0-13.083 7.833-24.668 20.025-29.62 1.808-.735 4.787-1.574 6.905-1.946 1.73-.303 8.188-.304 9.887 0 5.186.926 9.422 2.677 13.687 5.657 1.934 1.352 5.811 5.195 7.16 7.1a35.32 35.32 0 0 1 2.5 4.08c1.538 2.925 2.631 6.18 3.275 9.785.306 1.712.307 8.166.002 9.888-.912 5.142-2.8 9.675-5.776 13.862-1.282 1.804-4.855 5.413-6.696 6.765-4.104 3.012-8.626 4.964-13.673 5.902-1.365.254-7.44.469-8.577.303Zm4.858-11.743v-2.468l.47-.09c2.936-.556 4.613-1.327 6.314-2.903 2.259-2.09 3.441-4.615 3.58-7.642.113-2.484-.19-2.84-2.417-2.84-2.489 0-5.268 1.068-7.154 2.75l-.963.858V112.773l1.125-.105c2.151-.2 4.203-1.6 5.138-3.503.469-.955.47-.974.524-5.086l.054-4.127-1.503-.05-1.502-.05-.047-3.28-.046-3.283h-2.891v6.649H17.05v-6.649h-2.898v6.649H11.05l.07 3.878c.076 4.248.192 4.865 1.191 6.317.96 1.395 3.227 2.59 4.912 2.59h.679v3.991l-.64-.605c-2.191-2.076-4.618-3.037-7.679-3.042-1.478-.002-1.614.028-2.025.438-.43.43-.437.481-.36 2.259.163 3.694 1.917 6.792 4.983 8.803 1.192.78 3.358 1.57 4.74 1.728l.98.111v11.89h3.069v-2.469Zm0-5.94c0-.785.575-2.39 1.212-3.383.718-1.119 2.011-2.247 3.278-2.858 1.1-.531 2.786-.92 2.936-.677.14.227-.421 2.183-.895 3.116-.897 1.77-3.071 3.54-4.911 3.995-1.724.428-1.62.44-1.62-.193Zm-4.944-6.744c-1.526-.493-2.403-1.027-3.503-2.131-1.16-1.165-1.888-2.494-2.209-4.03l-.212-1.019.448.002c.596.002 1.848.391 2.769.86 2.263 1.152 3.835 3.373 4.307 6.085.085.49.053.553-.283.545-.208-.006-.8-.146-1.317-.313Zm.179-13.54c-.87-.277-1.793-1.284-2.027-2.212-.108-.432-.197-1.634-.197-2.672v-1.887l5.412.045 5.413.045-.007 2.216c-.007 1.915-.057 2.309-.367 2.898-.4.758-1.037 1.289-1.91 1.59-.734.253-5.506.236-6.317-.022Z" fill="#bc9a09" fill-rule="evenodd" data-name="path32"/></svg>